<svg width="585" height="293" viewBox="0 0 585 293" fill="none" xmlns="http://www.w3.org/2000/svg">
<path d="M202.656 38.176C170.912 60.192 93.088 -1.76001 67.488 0.799988C42.4 3.35999 35.232 46.88 35.232 46.88C76.192 37.152 111.52 70.944 148.896 74.528C111.52 97.568 66.464 125.216 36.256 154.912C-13.92 204.064 1.44 237.344 9.632 239.904C9.632 239.904 22.944 250.656 33.184 226.08C66.464 216.352 88.48 288.032 132.512 292.128C160.16 296.736 183.2 267.552 183.2 267.552C133.024 280.864 97.696 196.384 61.856 197.408C43.424 197.92 30.624 206.112 25.504 208.672C70.048 143.136 169.888 109.856 189.856 92.96C224.16 63.776 202.656 38.176 202.656 38.176ZM293.72 208.672C292.696 200.48 278.36 202.016 278.36 202.016C247.128 246.56 177.496 249.12 176.984 206.624C203.096 198.944 244.568 169.76 261.464 148.256C280.92 123.68 250.712 115.488 250.712 115.488C236.888 111.904 195.928 114.976 165.72 137.504C119.128 172.832 130.904 246.56 181.08 259.872C240.984 275.744 294.744 217.376 293.72 208.672ZM213.336 140.576C219.48 139.04 224.6 145.184 217.432 158.496C209.752 172.32 192.344 182.048 179.032 187.68C184.152 168.736 194.904 145.696 213.336 140.576ZM396.94 113.952C380.044 127.776 358.54 139.552 345.228 137.504C356.492 122.144 363.66 102.688 363.66 102.688C363.66 102.688 328.844 98.592 313.996 112.416C313.996 112.416 280.204 167.2 272.524 199.456C267.916 217.888 268.428 244 299.66 244C299.66 244 300.172 244 301.196 244C298.636 213.792 312.972 187.68 331.404 161.056C344.716 169.248 375.436 143.136 375.436 143.136C375.436 143.136 367.756 154.912 370.316 165.664C375.436 182.56 409.228 182.048 417.932 177.952C417.932 177.952 423.052 148.256 443.02 127.264C451.724 117.536 419.98 95.52 396.94 113.952ZM548.724 197.92C557.428 183.072 571.252 156.448 569.204 132.384C567.668 112.928 552.308 99.104 528.756 108.832C504.692 105.76 473.972 113.44 450.932 144.672C421.748 184.096 426.868 244 467.828 244C497.012 244 522.612 227.616 535.924 214.304C545.14 215.84 560.5 219.936 575.348 215.84C575.348 215.84 583.028 213.28 584.564 196.896C584.564 196.896 565.62 200.48 548.724 197.92ZM544.116 147.232C547.188 155.424 543.092 173.344 529.78 189.216C526.708 186.144 524.148 182.048 523.636 176.416C521.076 147.744 537.46 144.16 541.044 143.648C542.58 145.184 543.604 146.208 544.116 147.232ZM474.484 213.28C467.316 200.48 470.9 176.928 479.092 165.152C485.236 155.424 493.94 147.232 503.156 142.112C493.428 165.664 491.892 194.336 516.468 207.648C500.084 219.424 480.116 224.032 474.484 213.28Z" fill="white"/>
</svg>
